<svg width="97" height="21" viewBox="0 0 97 21" fill="none" xmlns="http://www.w3.org/2000/svg">
<g clip-path="url(#clip0_24_116)">
<mask id="mask0_24_116" style="mask-type:luminance" maskUnits="userSpaceOnUse" x="7" y="12" width="13" height="5">
<path d="M7.38379 12.7534H19.6353V16.5815H7.38379V12.7534Z" fill="white"/>
</mask>
<g mask="url(#mask0_24_116)">
<mask id="mask1_24_116" style="mask-type:luminance" maskUnits="userSpaceOnUse" x="6" y="12" width="15" height="6">
<path d="M20.4435 12.354H6.86157V17.5778H20.4435V12.354Z" fill="white"/>
</mask>
<g mask="url(#mask1_24_116)">
<mask id="mask2_24_116" style="mask-type:luminance" maskUnits="userSpaceOnUse" x="7" y="13" width="13" height="4">
<path d="M7.38379 13.0186H19.6353V16.5814H7.38379V13.0186Z" fill="white"/>
</mask>
<g mask="url(#mask2_24_116)">
<path d="M19.7334 16.8473H11.4854C9.22451 16.8473 7.39209 15.0148 7.39209 12.7539H15.64C17.9009 12.7539 19.7334 14.5863 19.7334 16.8473Z" fill="#08A698"/>
</g>
</g>
</g>
<mask id="mask3_24_116" style="mask-type:luminance" maskUnits="userSpaceOnUse" x="2" y="-5" width="15" height="18">
<path d="M2 -4.6665H16.6667V12.6668H2V-4.6665Z" fill="white"/>
</mask>
<g mask="url(#mask3_24_116)">
<mask id="mask4_24_116" style="mask-type:luminance" maskUnits="userSpaceOnUse" x="6" y="0" width="11" height="13">
<path d="M10.1591 0L16.3093 10.5946L12.9954 12.5168L6.84521 1.9222L10.1591 0Z" fill="white"/>
</mask>
<g mask="url(#mask4_24_116)">
<mask id="mask5_24_116" style="mask-type:luminance" maskUnits="userSpaceOnUse" x="5" y="-1" width="13" height="15">
<path d="M17.3092 -0.184082H5.81677V13.3979H17.3092V-0.184082Z" fill="white"/>
</mask>
<g mask="url(#mask5_24_116)">
<mask id="mask6_24_116" style="mask-type:luminance" maskUnits="userSpaceOnUse" x="7" y="-1" width="9" height="14">
<path d="M7.90625 -0.184082H15.2196V12.5449H7.90625V-0.184082Z" fill="white"/>
</mask>
<g mask="url(#mask6_24_116)">
<mask id="mask7_24_116" style="mask-type:luminance" maskUnits="userSpaceOnUse" x="6" y="0" width="11" height="13">
<path d="M10.1591 0L16.3093 10.5946L12.9954 12.5168L6.84521 1.9222L10.1591 0Z" fill="white"/>
</mask>
<g mask="url(#mask7_24_116)">
<mask id="mask8_24_116" style="mask-type:luminance" maskUnits="userSpaceOnUse" x="6" y="0" width="11" height="13">
<path d="M6.6167 2.05257L12.7669 12.6512L16.0808 10.729L9.93056 0.130371L6.6167 2.05257Z" fill="white"/>
</mask>
<g mask="url(#mask8_24_116)">
<path d="M12.8158 12.7329L10.7549 9.17824L8.68982 5.61951L8.67758 5.59911C7.54303 3.64426 8.20825 1.13845 10.1631 0.00390625L14.2932 7.12136L14.3013 7.14177C15.4359 9.09662 14.7707 11.6024 12.8158 12.7329Z" fill="#08A698"/>
</g>
</g>
</g>
</g>
</g>
</g>
<mask id="mask9_24_116" style="mask-type:luminance" maskUnits="userSpaceOnUse" x="0" y="6" width="10" height="14">
<path d="M0.425537 6.08496H9.99574V19.6669H0.425537V6.08496Z" fill="white"/>
</mask>
<g mask="url(#mask9_24_116)">
<mask id="mask10_24_116" style="mask-type:luminance" maskUnits="userSpaceOnUse" x="0" y="6" width="10" height="13">
<path d="M0.429688 16.8021L6.50646 6.1626L9.82848 8.06439L3.75171 18.7038L0.429688 16.8021Z" fill="white"/>
</mask>
<g mask="url(#mask10_24_116)">
<mask id="mask11_24_116" style="mask-type:luminance" maskUnits="userSpaceOnUse" x="-1" y="6" width="11" height="14">
<path d="M9.99586 6.08496H-0.451782V19.6669H9.99586V6.08496Z" fill="white"/>
</mask>
<g mask="url(#mask11_24_116)">
<mask id="mask12_24_116" style="mask-type:luminance" maskUnits="userSpaceOnUse" x="0" y="7" width="10" height="11">
<path d="M0.592896 7.13037H9.98353V17.578H0.592896V7.13037Z" fill="white"/>
</mask>
<g mask="url(#mask12_24_116)">
<mask id="mask13_24_116" style="mask-type:luminance" maskUnits="userSpaceOnUse" x="0" y="6" width="10" height="13">
<path d="M0.429688 16.8021L6.50646 6.1626L9.82848 8.06439L3.75171 18.7038L0.429688 16.8021Z" fill="white"/>
</mask>
<g mask="url(#mask13_24_116)">
<mask id="mask14_24_116" style="mask-type:luminance" maskUnits="userSpaceOnUse" x="0" y="6" width="11" height="13">
<path d="M3.98443 18.8342L10.0571 8.19477L6.7351 6.29297L0.658325 16.9324L3.98443 18.8342Z" fill="white"/>
</mask>
<g mask="url(#mask14_24_116)">
<path d="M10.1059 8.10944L8.06947 11.6804L6.02892 15.2514L6.01667 15.2718C4.89437 17.2348 2.39673 17.9164 0.433716 16.7981L2.47427 13.2231L4.51483 9.6521L4.52707 9.6317C5.64529 7.66868 8.14701 6.98714 10.1059 8.10944Z" fill="#08A698"/>
</g>
</g>
</g>
</g>
</g>
</g>
<path d="M30.8868 14.0371H25.8035L24.9493 16.4746H22.2618L26.866 3.66211H29.8452L34.4493 16.4746H31.741L30.8868 14.0371ZM30.1993 11.9746L28.3452 6.62044L26.491 11.9746H30.1993Z" fill="#131316"/>
<path d="M41.0389 6.16211C42.2473 6.16211 43.216 6.54753 43.9556 7.30794C44.7056 8.07357 45.0806 9.14128 45.0806 10.5163V16.4746H42.5181V10.8704C42.5181 10.0684 42.315 9.44857 41.9139 9.01628C41.5077 8.57357 40.9608 8.34961 40.2681 8.34961C39.5598 8.34961 38.9973 8.57357 38.5806 9.01628C38.1744 9.44857 37.9764 10.0684 37.9764 10.8704V16.4746H35.4139V6.30794H37.9764V7.57878C38.3202 7.15169 38.7577 6.80794 39.2889 6.55794C39.815 6.29753 40.3983 6.16211 41.0389 6.16211Z" fill="#131316"/>
<path d="M56.474 6.30811L50.1823 21.2873H47.4531L49.6615 16.2248L45.5781 6.30811H48.474L51.0781 13.4123L53.7448 6.30811H56.474Z" fill="#131316"/>
<path d="M59.6529 14.4331H63.8612V16.4748H57.0904V3.68311H59.6529V14.4331Z" fill="#131316"/>
<path d="M74.1751 11.1829C74.1751 11.5475 74.1438 11.8704 74.0918 12.1621H66.6751C66.7272 12.9017 66.9876 13.4746 67.4459 13.8913C67.9043 14.3079 68.4563 14.5163 69.1126 14.5163C70.0709 14.5163 70.748 14.11 71.1543 13.2871H73.9251C73.6178 14.2611 73.0501 15.0684 72.2168 15.7038C71.3938 16.3288 70.3834 16.6413 69.1751 16.6413C68.1855 16.6413 67.3053 16.4277 66.5293 15.9954C65.7636 15.5527 65.1595 14.9329 64.7168 14.1413C64.2845 13.3496 64.0709 12.4329 64.0709 11.3913C64.0709 10.3496 64.2845 9.43294 64.7168 8.64128C65.1438 7.83919 65.7428 7.22461 66.5084 6.80794C67.2845 6.38086 68.1751 6.16211 69.1751 6.16211C70.1334 6.16211 70.9928 6.37044 71.7584 6.78711C72.5188 7.19336 73.1126 7.77669 73.5293 8.53711C73.9563 9.30273 74.1751 10.1829 74.1751 11.1829ZM71.5084 10.4329C71.4928 9.7819 71.2584 9.26107 70.8001 8.87044C70.3418 8.4694 69.7688 8.26628 69.0918 8.26628C68.4511 8.26628 67.9147 8.46419 67.4876 8.84961C67.0553 9.22461 66.7897 9.75586 66.6959 10.4329H71.5084Z" fill="#131316"/>
<path d="M74.6157 11.3496C74.6157 10.3392 74.8136 9.43294 75.2199 8.64128C75.6366 7.83919 76.1886 7.22461 76.8866 6.80794C77.5949 6.38086 78.3866 6.16211 79.2616 6.16211C80.0116 6.16211 80.6678 6.31836 81.2407 6.62044C81.8084 6.92773 82.2668 7.30794 82.6157 7.76628V6.30794H85.1991V16.4746H82.6157V14.9954C82.2824 15.4694 81.8241 15.8652 81.2407 16.1829C80.6574 16.485 79.9907 16.6413 79.2407 16.6413C78.3761 16.6413 77.5949 16.4277 76.8866 15.9954C76.1886 15.5527 75.6366 14.9277 75.2199 14.1204C74.8136 13.3184 74.6157 12.3913 74.6157 11.3496ZM82.6157 11.3913C82.6157 10.7663 82.4907 10.235 82.2407 9.78711C82.0011 9.3444 81.6782 9.00586 81.2616 8.76628C80.8449 8.5319 80.3918 8.41211 79.9074 8.41211C79.4334 8.41211 78.9959 8.5319 78.5949 8.76628C78.1886 8.99023 77.8657 9.32357 77.6157 9.76628C77.3657 10.2142 77.2407 10.7402 77.2407 11.3496C77.2407 11.9642 77.3657 12.4954 77.6157 12.9538C77.8657 13.4121 78.1886 13.7663 78.5949 14.0163C79.0116 14.2663 79.4491 14.3913 79.9074 14.3913C80.3918 14.3913 80.8449 14.2767 81.2616 14.0371C81.6782 13.7871 82.0011 13.4434 82.2407 12.9954C82.4907 12.5527 82.6157 12.0163 82.6157 11.3913Z" fill="#131316"/>
<path d="M86.2792 11.3496C86.2792 10.3392 86.4772 9.43294 86.8834 8.64128C87.3001 7.83919 87.8626 7.22461 88.5709 6.80794C89.2792 6.38086 90.0709 6.16211 90.9459 6.16211C91.5969 6.16211 92.2219 6.30794 92.8209 6.59961C93.4147 6.88086 93.8938 7.25586 94.2584 7.72461V2.91211H96.8626V16.4746H94.2584V14.9746C93.9355 15.4746 93.4876 15.8809 92.9042 16.1829C92.3313 16.485 91.6751 16.6413 90.9251 16.6413C90.0605 16.6413 89.2792 16.4277 88.5709 15.9954C87.8626 15.5527 87.3001 14.9277 86.8834 14.1204C86.4772 13.3184 86.2792 12.3913 86.2792 11.3496ZM94.2792 11.3913C94.2792 10.7663 94.1542 10.235 93.9042 9.78711C93.6647 9.3444 93.3417 9.00586 92.9251 8.76628C92.5084 8.5319 92.0553 8.41211 91.5709 8.41211C91.0969 8.41211 90.6594 8.5319 90.2584 8.76628C89.8522 8.99023 89.5292 9.32357 89.2792 9.76628C89.0292 10.2142 88.9042 10.7402 88.9042 11.3496C88.9042 11.9642 89.0292 12.4954 89.2792 12.9538C89.5292 13.4121 89.8522 13.7663 90.2584 14.0163C90.6751 14.2663 91.1126 14.3913 91.5709 14.3913C92.0553 14.3913 92.5084 14.2767 92.9251 14.0371C93.3417 13.7871 93.6647 13.4434 93.9042 12.9954C94.1542 12.5527 94.2792 12.0163 94.2792 11.3913Z" fill="#131316"/>
</g>
<defs>
<clipPath id="clip0_24_116">
<rect width="97" height="21" fill="white"/>
</clipPath>
</defs>
</svg>
